HIERARCHY
ROOT Hip
{
	OFFSET	0.0000	0.0000	0.0000
	CHANNELS 6 Xposition Yposition Zposition Xrotation Yrotation Zrotation
	JOINT LowerSpine
	{
		OFFSET	0.0000	8.3453	-5.1292
		CHANNELS 3 Xrotation Yrotation Zrotation
		JOINT MiddleSpine
		{
			OFFSET	10.8569	0.0000	0.0000
			CHANNELS 3 Xrotation Yrotation Zrotation
			JOINT Chest
			{
				OFFSET	15.2984	0.0000	0.0000
				CHANNELS 3 Xrotation Yrotation Zrotation
				JOINT Neck
				{
					OFFSET	25.6618	-0.5986	0.0000
					CHANNELS 3 Xrotation Yrotation Zrotation
					JOINT Head
					{
						OFFSET	8.8829	0.0000	0.0000
						CHANNELS 3 Xrotation Yrotation Zrotation
						End Site
						{
							OFFSET	19.7399	0.0000	0.0000
						}
					}
				}
				JOINT RClavicle
				{
					OFFSET	23.6878	0.0000	3.1584
					CHANNELS 3 Xrotation Yrotation Zrotation
					JOINT RShoulder
					{
						OFFSET	-15.5945	-3.9480	0.9870
						CHANNELS 3 Xrotation Yrotation Zrotation
						JOINT RForearm
						{
							OFFSET	-31.3370	0.0000	0.1974
							CHANNELS 3 Xrotation Yrotation Zrotation
							JOINT RHand
							{
								OFFSET	-26.4021	0.0000	0.0000
								CHANNELS 3 Xrotation Yrotation Zrotation
								End Site
								{
									OFFSET	-15.7919	-0.9870	0.0000
								}
							}
						}
					}
				}
				JOINT LClavicle
				{
					OFFSET	23.6878	0.0000	-3.1584
					CHANNELS 3 Xrotation Yrotation Zrotation
					JOINT LShoulder
					{
						OFFSET	-15.5945	-3.9480	-0.9870
						CHANNELS 3 Xrotation Yrotation Zrotation
						JOINT LForearm
						{
							OFFSET	-31.3370	0.0000	-0.1974
							CHANNELS 3 Xrotation Yrotation Zrotation
							JOINT LHand
							{
								OFFSET	-26.4021	0.0000	0.0000
								CHANNELS 3 Xrotation Yrotation Zrotation
								End Site
								{
									OFFSET	-15.7919	-0.9870	0.0000
								}
							}
						}
					}
				}
			}
		}
	}
	JOINT RThigh
	{
		OFFSET	-8.8829	0.4481	0.0000
		CHANNELS 3 Xrotation Yrotation Zrotation
		JOINT RShin
		{
			OFFSET	43.1316	0.0000	-0.4935
			CHANNELS 3 Xrotation Yrotation Zrotation
			JOINT RFoot
			{
				OFFSET	0.0000	-44.7256	-0.4047
				CHANNELS 3 Xrotation Yrotation Zrotation
				JOINT RToe
				{
					OFFSET	0.0000	-3.9332	12.1953
					CHANNELS 3 Xrotation Yrotation Zrotation
					End Site
					{
						OFFSET	6.7725	0.0000	0.0000
					}
				}
			}
		}
	}
	JOINT LThigh
	{
		OFFSET	8.8829	0.4481	0.0000
		CHANNELS 3 Xrotation Yrotation Zrotation
		JOINT LShin
		{
			OFFSET	43.1316	0.0000	0.4935
			CHANNELS 3 Xrotation Yrotation Zrotation
			JOINT LFoot
			{
				OFFSET	0.0000	-44.7256	0.4047
				CHANNELS 3 Xrotation Yrotation Zrotation
				JOINT LToe
				{
					OFFSET	0.0000	-3.9332	-12.1953
					CHANNELS 3 Xrotation Yrotation Zrotation
					End Site
					{
						OFFSET	6.7725	0.0000	0.0000
					}
				}
			}
		}
	}
}
MOTION
Frames:	5
Frame Time: 0.0169491000
	0.0000	93.1363	0.0000	0.000000	0.000000	0.000000	-89.999990	-90.000000	0.000000	0.000000	0.000000	0.000000	0.000000	0.000000	0.000000	0.000000	0.000000	0.000000	0.000000	0.000000	0.000000	89.999990	0.000003	-89.999990	0.129889	-2.857029	4.156837	0.255388	4.965908	-5.884634	0.000000	0.000000	0.000000	-89.999990	-0.000003	-89.999990	-0.129889	2.857029	4.156894	-0.255388	-4.965908	-5.884634	0.000000	0.000000	0.000000	-89.999990	90.000000	0.000000	89.999990	-0.000003	89.999990	0.000000	0.000000	0.000000	180.000000	90.000000	0.000000	-89.999990	90.000000	0.000000	-90.000000	-0.000003	89.999990	0.000000	0.000000	0.000000	180.000000	-90.000000	0.000000
	6.3735	93.8997	-20.7377	-1.696679	5.283231	0.061856	-89.999990	-90.000000	0.000000	-0.074085	-0.154966	0.266394	-0.244016	-0.517746	0.887062	0.000000	0.000000	0.000000	0.000000	0.000000	0.000000	90.002770	0.051680	-90.695140	6.049706	-1.282307	-2.939853	0.678918	9.027438	-5.936257	0.000000	0.000000	0.000000	-90.005840	-0.098593	-91.326620	-8.334402	-2.712265	-4.186202	-0.465400	-6.988737	-5.906507	0.000000	0.000000	0.000000	-75.538940	85.100140	-6.362906	89.965580	3.834973	89.997220	-0.056712	0.782390	0.276743	170.375200	90.000000	0.000000	-142.406200	88.545250	56.558040	-89.961610	-4.279232	89.997060	0.061893	-0.499157	0.198170	186.545500	-90.000000	0.000000
	6.6673	93.6454	-21.1910	-1.285267	5.743639	0.187049	-89.999990	-90.000000	0.000000	-0.095424	-0.125674	0.203839	-0.316292	-0.420182	0.678566	0.000000	0.000000	0.000000	0.000000	0.000000	0.000000	90.001410	0.027815	-90.374070	-2.575163	-3.133739	0.206751	1.209992	13.989190	-6.042312	0.000000	0.000000	0.000000	-90.004530	-0.079524	-91.069820	-4.329618	-3.410497	-1.243931	-0.443606	-6.779551	-5.903895	0.000000	0.000000	0.000000	-80.927010	85.470310	-1.177810	89.977500	2.506238	89.997920	-1.575558	0.063487	0.015270	173.579700	90.000000	0.000000	-153.157000	89.409910	66.387910	-89.958500	-4.627397	89.996950	2.087551	-0.167637	0.051594	183.973600	-90.000000	0.000000
	6.9252	93.2730	-21.6964	-0.773978	6.139233	0.271158	-89.999990	-90.000000	0.000000	-0.102897	-0.110317	0.140205	-0.341950	-0.368723	0.466546	0.000000	0.000000	0.000000	0.000000	0.000000	0.000000	90.000530	0.011218	-90.150840	-8.967619	-5.317582	3.135489	1.769678	18.994440	-6.201347	0.000000	0.000000	0.000000	-90.003400	-0.061809	-90.831390	-2.682985	-4.155865	1.438106	-0.412029	-6.476139	-5.900250	0.000000	0.000000	0.000000	-81.580420	85.732540	-0.925970	89.986590	1.492430	89.998640	-3.179184	-0.574059	-0.225815	175.787400	90.000000	0.000000	-88.149600	90.000000	0.000000	-89.953250	-5.213044	89.996800	4.022849	-0.609212	0.159607	182.028900	-90.000000	0.000000
	7.0507	93.0185	-22.0100	-0.478555	6.626033	0.256687	-89.999990	-90.000000	0.000000	-0.093857	-0.113745	0.074940	-0.312296	-0.379664	0.249077	0.000000	0.000000	0.000000	0.000000	0.000000	0.000000	90.000120	0.002730	-90.036670	-10.961240	-7.659108	6.633471	2.427713	24.511910	-6.445507	0.000000	0.000000	0.000000	-90.002370	-0.045055	-90.605950	-3.087721	-5.535693	4.444705	-0.360186	-5.977204	-5.894627	0.000000	0.000000	0.000000	-79.941280	85.778270	-2.960876	89.988530	1.276754	89.998820	-4.244330	-1.056244	-0.392961	176.776500	90.000000	0.000000	75.249710	89.607830	-163.933200	-89.948690	-5.720049	89.996710	5.135032	-1.652911	0.533912	181.154600	-90.000000	0.000000
